<?xml version="1.0" encoding="UTF-8"?>
<svg width="71px" height="90px" viewBox="0 0 71 90" version="1.1" xmlns="http://www.w3.org/2000/svg" xmlns:xlink="http://www.w3.org/1999/xlink">
    <!-- Generator: Sketch 43.1 (39012) - http://www.bohemiancoding.com/sketch -->
    <title>Group 2</title>
    <desc>Created with Sketch.</desc>
    <defs></defs>
    <g id="Icons" stroke="none" stroke-width="1" fill="none" fill-rule="evenodd">
        <g transform="translate(-404.000000, -229.000000)" id="Group-2">
            <g transform="translate(404.000000, 229.000000)">
                <g id="noun_872114_cc" fill-rule="nonzero" fill="#000000">
                    <path d="M36.7644145,7.86407767 C36.7644145,7.86407767 36.7644145,3.62228838 36.7644145,1.74757282 C36.7644145,-0.127142749 33.8517931,0.618647603 33.8517931,1.74757282 C33.8517931,2.87649803 33.8517931,9.24757282 33.8517931,9.24757282 L33.8517931,30.8009709 L33.8517931,53.1553398 C33.8517931,53.1553398 1.25479189,86.0603339 0.356647513,87.0873786 C-0.54149686,88.1144234 1.2352345,90.2090602 2.39548246,89.1262136 C3.55573043,88.043367 14.9197543,76.3834951 14.9197543,76.3834951 L22.5653854,81.7718447 C23.2935407,82.2815534 24.1673271,82.5728155 25.0411135,82.5728155 C25.9148999,82.5728155 26.7886863,82.2815534 27.5168417,81.7718447 L34.507133,76.8932039 C35.0168417,76.5291262 35.6721815,76.5291262 36.1818902,76.8932039 L43.1721815,81.7718447 C44.7013077,82.7912621 46.6673271,82.7912621 48.1964533,81.7718447 L55.5508223,76.6019417 C55.5508223,76.6019417 66.9140571,88.3877366 67.929463,89.1262136 C68.944869,89.8646906 71.0004803,88.2484451 69.968298,87.0873786 C68.9361157,85.9263122 36.4731524,53.1553398 36.4731524,53.1553398 L36.4731524,32.2572816 L36.7644145,7.86407767 Z M46.7401427,79.368932 C46.2304339,79.7330097 45.5750941,79.7330097 45.0653854,79.368932 L38.0750941,74.4902913 C36.5459679,73.4708738 34.5799485,73.4708738 33.0508223,74.4902913 L26.060531,79.368932 C25.5508223,79.7330097 24.8954825,79.7330097 24.3857737,79.368932 L17.1042203,74.2718447 L35.3081038,55.776699 L53.7304339,74.4902913 L46.7401427,79.368932 Z" id="Shape"></path>
                </g>
                <path d="M36.6878935,8.44167946 C36.6878935,8.44167946 66.3761212,8.66732778 68.1484766,8.66732778 C69.9208321,8.66732778 59.2792808,18.0156856 59.2792808,18.0156856 C59.2792808,18.0156856 70.0155492,27.9559198 68.1853615,27.9559198 C66.3551738,27.9559198 36.5685602,27.5783928 36.5685602,27.5783928" id="Path-3" stroke="#000000" stroke-width="3" stroke-linecap="round"></path>
            </g>
        </g>
    </g>
</svg>